<?xml version="1.0" encoding="UTF-8"?>
<!-- Created with Inkscape (http://www.inkscape.org/) -->
<svg width="512" height="276" version="1.1" viewBox="0 0 135.47 73.025" xmlns="http://www.w3.org/2000/svg">
 <g stroke-width="1.2485">
  <path d="m0.16061 48.497v-48.498h15.763v6.0495h-8.1374v36.451h8.1374v5.9982z"/>
  <path d="m23.092 33.265q0-2.1788 1.561-3.7425 1.5866-1.5637 3.8384-1.5637 2.2518 0 3.7872 1.5637 1.561 1.5637 1.561 3.7425 0 2.2045-1.561 3.8194-1.5354 1.5893-3.7872 1.5893-2.2518 0-3.8384-1.5893-1.561-1.6149-1.561-3.8194zm0-17.712q0-1.4611 0.7165-2.6659 0.74209-1.2303 1.9703-1.9737 1.2282-0.74337 2.7125-0.74337 2.2518 0 3.7872 1.6149 1.561 1.5893 1.561 3.7681t-1.561 3.7681q-1.5354 1.5893-3.7872 1.5893-2.2518 0-3.8384-1.5893-1.561-1.5893-1.561-3.7681z"/>
  <path d="m55.394 9.6828q3.5569 0 5.732 1.7687 2.1751 1.7687 3.1731 4.9985 1.0236 3.2298 1.0236 7.6644 0 4.2038-1.2282 7.5105-1.2282 3.2811-3.5569 5.178-2.3286 1.8713-5.6553 1.8713-3.9663 0-6.4485-2.8453v12.483l-8.0861 0.8459v-38.579h7.165l0.35825 3.0504q1.6633-2.1276 3.6336-3.0247 1.9703-0.92281 3.8895-0.92281zm-2.5077 5.9726q-1.4074 0-2.4821 0.8459-1.0748 0.8459-1.9703 2.307v11.484q0.84445 1.2561 1.7656 1.8456 0.94679 0.58957 2.2262 0.58957 2.1495 0 3.3522-1.9481 1.2026-1.9737 1.2026-6.5622 0-3.3836-0.4862-5.2292-0.4862-1.8713-1.4074-2.5889-0.92122-0.74337-2.2007-0.74337z"/>
  <path d="m90.679 43.321v-35.652h6.602v35.652zm20.497-10.305-17.196 15.508-17.196-15.508 4.5549-5.3061 3.8895 3.5887c1.1259 1.0424 2.141 2.0506 3.0451 3.0247 0.9212 0.99116 1.7231 2.0336 2.4054 3.1272h6.602c0.68238-1.0937 1.4756-2.1361 2.3798-3.1272 0.92122-0.97407 1.9448-1.9824 3.0707-3.0247l3.8895-3.5887z"/>
  <path d="m135.31-8.9845e-4v48.498h-15.763v-6.0495h8.1374v-36.399h-8.1374v-6.0495z"/>
 </g>
 <g stroke-width=".63748">
  <path d="m0 54.446h5.6353v6.3927h6.1577v-6.3927h5.6601v18.268h-5.6601v-7.3896h-6.1577v7.3896h-5.6353z"/>
  <path d="m21.073 54.446h5.063v3.4518h-5.063zm0 5.0344h5.063v13.234h-5.063z"/>
  <path d="m39.248 67.543 4.8142 0.5483q-0.39808 1.5078-1.3062 2.6169-0.90811 1.0966-2.3263 1.7072-1.4057 0.6106-3.5827 0.6106-2.1023 0-3.508-0.3863-1.3933-0.39876-2.4009-1.2711-1.0076-0.88475-1.5799-2.0686-0.57223-1.1838-0.57223-3.1403 0-2.0437 0.69663-3.4019 0.51003-0.99691 1.3933-1.782 0.88323-0.79752 1.8162-1.1838 1.4803-0.6106 3.7942-0.6106 3.2344 0 4.9262 1.1589 1.7043 1.1589 2.3885 3.3895l-4.7645 0.63553q-0.22392-0.84737-0.82103-1.2711-0.58467-0.43615-1.5799-0.43615-1.2564 0-2.0401 0.90968-0.77127 0.89722-0.77127 2.729 0 1.6324 0.77127 2.4798 0.77127 0.84737 1.9655 0.84737 0.99519 0 1.6669-0.51092 0.68419-0.51091 1.0201-1.5701z"/>
  <path d="m56.265 67.543 4.8142 0.5483q-0.39808 1.5078-1.3062 2.6169-0.90811 1.0966-2.3263 1.7072-1.4057 0.6106-3.5827 0.6106-2.1023 0-3.508-0.3863-1.3933-0.39876-2.4009-1.2711-1.0076-0.88475-1.5799-2.0686-0.57223-1.1838-0.57223-3.1403 0-2.0437 0.69663-3.4019 0.51003-0.99691 1.3933-1.782 0.88323-0.79752 1.8162-1.1838 1.4803-0.6106 3.7942-0.6106 3.2344 0 4.9262 1.1589 1.7043 1.1589 2.3885 3.3895l-4.7645 0.63553q-0.22392-0.84737-0.82103-1.2711-0.58467-0.43615-1.5799-0.43615-1.2564 0-2.0401 0.90968-0.77127 0.89722-0.77127 2.729 0 1.6324 0.77127 2.4798 0.77127 0.84737 1.9655 0.84737 0.99519 0 1.6669-0.51092 0.68419-0.51091 1.0201-1.5701z"/>
  <path d="m77.339 54.446v18.268h-4.7396v-1.9564q-0.99519 1.2461-1.8162 1.6823-1.0947 0.57322-2.4382 0.57322-2.6994 0-4.13-2.0561-1.4181-2.0561-1.4181-4.997 0-3.2898 1.5674-5.0344 1.5799-1.7446 4.0056-1.7446 1.1818 0 2.1397 0.39876 0.97031 0.39876 1.7167 1.1963v-6.3304zm-5.0755 11.614q0-1.5577-0.65931-2.3178-0.65931-0.7726-1.6669-0.7726-0.88323 0-1.4803 0.73522-0.59711 0.73522-0.59711 2.4673 0 1.62 0.60955 2.3801 0.62199 0.74768 1.5301 0.74768 0.97031 0 1.6172-0.76014 0.64687-0.76014 0.64687-2.4798z"/>
  <path d="m79.827 66.135q0-3.0281 2.0401-4.9845 2.0401-1.9689 5.5109-1.9689 3.9683 0 5.996 2.3053 1.6296 1.8567 1.6296 4.5733 0 3.053-2.0277 5.0095-2.0153 1.944-5.5855 1.944-3.1846 0-5.1501-1.62-2.4133-2.0063-2.4133-5.2587zm5.0755-0.01246q0 1.7695 0.70907 2.6169 0.72151 0.84737 1.8038 0.84737 1.0947 0 1.7913-0.83491 0.70907-0.83491 0.70907-2.6792 0-1.7197-0.70907-2.5546-0.70907-0.84737-1.754-0.84737-1.1071 0-1.8287 0.85983-0.72151 0.84737-0.72151 2.592z"/>
  <path d="m95.973 59.48h4.9013l2.1272 8.3366 2.687-8.3366h4.5654l2.7865 8.3366 2.1272-8.3366h4.864l-4.864 13.234h-4.5032l-2.6746-7.9628-2.5875 7.9628h-4.5281z"/>
  <path d="m121.5 59.48h4.7147v2.1558q1.0574-1.3209 2.1396-1.8817 1.0823-0.57322 2.6372-0.57322 2.1023 0 3.2841 1.2586 1.1942 1.2461 1.1942 3.863v8.4114h-5.0879v-7.2774q0-1.2461-0.46028-1.757-0.46028-0.52338-1.2937-0.52338-0.92056 0-1.4928 0.69783-0.57223 0.69784-0.57223 2.5047v6.3553h-5.063z"/>
 </g>
</svg>
